Coordinates
version=1
nRows=5
nColumns=40
inDegrees=yes

Units are S.I. units (second, meters, Newtons, ...)
Angles are in degrees.

endheader
time	pelvis_tilt	pelvis_list	pelvis_rotation	pelvis_tx	pelvis_ty	pelvis_tz	hip_flexion_r	hip_adduction_r	hip_rotation_r	knee_angle_r	knee_angle_r_beta	ankle_angle_r	subtalar_angle_r	mtp_angle_r	hip_flexion_l	hip_adduction_l	hip_rotation_l	knee_angle_l	knee_angle_l_beta	ankle_angle_l	subtalar_angle_l	mtp_angle_l	lumbar_extension	lumbar_bending	lumbar_rotation	arm_flex_r	arm_add_r	arm_rot_r	elbow_flex_r	pro_sup_r	wrist_flex_r	wrist_dev_r	arm_flex_l	arm_add_l	arm_rot_l	elbow_flex_l	pro_sup_l	wrist_flex_l	wrist_dev_l
      0.00000000	     -2.47308022	     -4.12840734	     11.59451890	     -1.09571444	      0.88186168	     -1.08678746	     26.91819316	     -2.64000494	    -24.46492615	    -25.48500657	     -0.44479727	      6.64663359	    -10.22237901	     14.08481927	      4.43889463	     11.26027368	     17.57817731	    -27.44568652	     -0.47901760	     12.92322555	      3.40632609	     -3.99688564	     -5.42550623	      0.05722077	     -8.69234670	     -7.44778132	     -8.49279531	    -19.95624267	     16.25852876	     89.95437384	      0.00000000	      0.00000000	      7.10603330	     19.78121160	     28.46162728	     53.74413950	     89.95437384	      0.00000000	      0.00000000
      0.01000000	     -2.69900460	     -4.07864759	     11.40015439	     -1.08920321	      0.88120633	     -1.08656654	     27.27019843	     -2.67260216	    -24.63988082	    -23.97724977	     -0.41848195	      6.59554143	     -9.55290051	     13.97996246	      4.10933384	     11.26698208	     17.67122990	    -27.36190606	     -0.47755535	     12.91039977	      3.38900077	     -3.97295615	     -5.27806369	     -0.00570868	     -8.87370920	     -7.65929923	     -8.46681740	    -20.09146769	     15.95329831	     89.95437384	      0.00000000	      0.00000000	      7.24611207	     19.92897179	     28.65072643	     54.59402485	     89.95437384	      0.00000000	      0.00000000
      0.02000000	     -2.66129335	     -4.15050313	     11.24339485	     -1.08216119	      0.88085776	     -1.08620895	     27.26290721	     -2.56654585	    -25.20454617	    -22.45430974	     -0.39190164	      6.69736000	     -8.39735651	     13.59026728	      3.50029039	     11.55352596	     18.00559858	    -27.32738879	     -0.47695291	     12.78793383	      3.08653957	     -4.01833151	     -5.35899588	      0.11469610	     -8.92341914	     -7.93369938	     -8.40910794	    -20.61498911	     15.72519212	     89.95437384	      0.00000000	      0.00000000	      7.48586131	     20.01042200	     28.73488328	     55.35274340	     89.95437384	      0.00000000	      0.00000000
      0.03000000	     -2.97636298	     -4.05705089	     11.01923920	     -1.07545574	      0.87995723	     -1.08569206	     27.72272616	     -2.65000238	    -25.31657052	    -21.23749998	     -0.37066430	      6.68943645	     -7.60404177	     13.32916033	      3.30050548	     11.52151203	     18.10906352	    -27.34265851	     -0.47721942	     12.67681955	      3.07768645	     -3.99438400	     -5.08987006	      0.01612422	     -9.04672855	     -8.22583100	     -8.36557909	    -20.49548019	     15.64105136	     89.95437384	      0.00000000	      0.00000000	      7.62747524	     20.08712272	     28.95802428	     56.01865275	     89.95437384	      0.00000000	      0.00000000
      0.04000000	     -3.25734494	     -3.91887666	     10.83306927	     -1.06849970	      0.87905533	     -1.08527605	     28.18175813	     -2.82160996	    -25.51441691	    -20.35914521	     -0.35533412	      6.82304408	     -7.21632120	     13.14554271	      3.06780144	     11.44741909	     18.19528938	    -27.39750495	     -0.47817667	     12.52789388	      3.08296354	     -3.94513897	     -4.84081428	     -0.10393021	     -9.05711784	     -8.57828255	     -8.33945821	    -20.54660766	     15.56981755	     89.95437384	      0.00000000	      0.00000000	      7.82382186	     20.15503295	     28.96645474	     56.59985146	     89.95437384	      0.00000000	      0.00000000
